<svg width="130" height="35" viewBox="0 0 130 35" fill="none" xmlns="http://www.w3.org/2000/svg">
<path d="M15.0951 29.946H10.6261L9.47225 33.8517H0L8.95469 10.1908H16.9831L25.938 33.8517H16.2652L15.0951 29.946ZM14.3953 24.8996L12.9 20.2235L11.4909 24.9144L14.3953 24.8996Z" fill="white"/>
<path d="M28.2944 10.1908H37.6522V25.0878H47.1465V33.8517H28.2944V10.1908Z" fill="white"/>
<path d="M126.58 27.7143H107.564V34.2215H126.58V27.7143Z" fill="white"/>
<path d="M126.58 27.7143H107.564V34.2215H126.58V27.7143Z" fill="white"/>
<path fill-rule="evenodd" clip-rule="evenodd" d="M61.4359 9.36863C68.5181 9.36863 74.2681 15.079 74.2681 22.1123C74.2681 29.1459 68.5181 34.8562 61.4359 34.8562C54.3535 34.8562 48.6035 29.1459 48.6035 22.1123C48.6035 15.079 54.3535 9.36863 61.4359 9.36863ZM61.4359 18.0678C63.6836 18.0678 65.5085 19.8802 65.5085 22.1123C65.5085 24.3447 63.6836 26.1571 61.4359 26.1571C59.188 26.1571 57.3631 24.3447 57.3631 22.1123C57.3631 19.8802 59.188 18.0678 61.4359 18.0678Z" fill="white"/>
<path fill-rule="evenodd" clip-rule="evenodd" d="M117.168 0C124.25 0 130 5.71034 130 12.7439C130 19.7772 124.25 25.4876 117.168 25.4876C110.085 25.4876 104.335 19.7772 104.335 12.7439C104.335 5.71034 110.085 0 117.168 0ZM117.168 8.69914C119.415 8.69914 121.24 10.5115 121.24 12.7439C121.24 14.976 119.415 16.7884 117.168 16.7884C114.92 16.7884 113.095 14.976 113.095 12.7439C113.095 10.5115 114.92 8.69914 117.168 8.69914Z" fill="white"/>
<path fill-rule="evenodd" clip-rule="evenodd" d="M103.18 25.1947C101.625 30.4927 96.6942 34.3688 90.8592 34.3688C83.7769 34.3688 78.0269 28.6587 78.0269 21.6251C78.0269 14.5916 83.7769 8.88144 90.8592 8.88144C96.9238 8.88144 102.011 13.0685 103.348 18.6878H93.303V25.1947H103.18Z" fill="white"/>
</svg>
